<svg height="4190" width="720" xmlns="http://www.w3.org/2000/svg">
<rect height="4190" fill="#555" width="720"></rect>
<text fill="#7f7" font-family="Courier New" font-size="12" xml:space="preserve">
<tspan x="10" y="26">39 megabytes installed</tspan>
<tspan x="10" y="42"></tspan>
<tspan x="10" y="58">node_modules</tspan>
<tspan x="10" y="74">└─┬ bower-update@0.2.0 </tspan>
<tspan x="10" y="90">  ├── async@0.9.2 </tspan>
<tspan x="10" y="106">  ├─┬ bower@1.4.2 </tspan>
<tspan x="10" y="122">  │ ├── abbrev@1.1.0 </tspan>
<tspan x="10" y="138">  │ ├── archy@1.0.0 </tspan>
<tspan x="10" y="154">  │ ├─┬ bower-config@0.6.1 </tspan>
<tspan x="10" y="170">  │ │ ├── graceful-fs@2.0.3 </tspan>
<tspan x="10" y="186">  │ │ ├── mout@0.9.1 </tspan>
<tspan x="10" y="202">  │ │ ├─┬ optimist@0.6.1 </tspan>
<tspan x="10" y="218">  │ │ │ ├── minimist@0.0.10 </tspan>
<tspan x="10" y="234">  │ │ │ └── wordwrap@0.0.3 </tspan>
<tspan x="10" y="250">  │ │ └── osenv@0.0.3 </tspan>
<tspan x="10" y="266">  │ ├── bower-endpoint-parser@0.2.2 </tspan>
<tspan x="10" y="282">  │ ├─┬ bower-json@0.4.0 </tspan>
<tspan x="10" y="298">  │ │ ├── deep-extend@0.2.11 </tspan>
<tspan x="10" y="314">  │ │ ├── graceful-fs@2.0.3 </tspan>
<tspan x="10" y="330">  │ │ └── intersect@0.0.3 </tspan>
<tspan x="10" y="346">  │ ├── bower-logger@0.2.2 </tspan>
<tspan x="10" y="362">  │ ├─┬ bower-registry-client@0.3.0 </tspan>
<tspan x="10" y="378">  │ │ ├── async@0.2.10 </tspan>
<tspan x="10" y="394">  │ │ ├── graceful-fs@2.0.3 </tspan>
<tspan x="10" y="410">  │ │ ├── lru-cache@2.3.1 </tspan>
<tspan x="10" y="426">  │ │ ├── mkdirp@0.3.5 </tspan>
<tspan x="10" y="442">  │ │ ├─┬ request@2.51.0 </tspan>
<tspan x="10" y="458">  │ │ │ ├── caseless@0.8.0 </tspan>
<tspan x="10" y="474">  │ │ │ ├─┬ hawk@1.1.1 </tspan>
<tspan x="10" y="490">  │ │ │ │ ├── boom@0.4.2 </tspan>
<tspan x="10" y="506">  │ │ │ │ ├── cryptiles@0.2.2 </tspan>
<tspan x="10" y="522">  │ │ │ │ ├── hoek@0.9.1 </tspan>
<tspan x="10" y="538">  │ │ │ │ └── sntp@0.2.4 </tspan>
<tspan x="10" y="554">  │ │ │ ├── mime-types@1.0.2 </tspan>
<tspan x="10" y="570">  │ │ │ └── oauth-sign@0.5.0 </tspan>
<tspan x="10" y="586">  │ │ ├── request-replay@0.2.0 </tspan>
<tspan x="10" y="602">  │ │ └── rimraf@2.2.8 </tspan>
<tspan x="10" y="618">  │ ├─┬ cardinal@0.4.4 </tspan>
<tspan x="10" y="634">  │ │ ├── ansicolors@0.2.1 </tspan>
<tspan x="10" y="650">  │ │ └─┬ redeyed@0.4.4 </tspan>
<tspan x="10" y="666">  │ │   └── esprima@1.0.4 </tspan>
<tspan x="10" y="682">  │ ├── chmodr@0.1.0 </tspan>
<tspan x="10" y="698">  │ ├─┬ configstore@0.3.2 </tspan>
<tspan x="10" y="714">  │ │ ├─┬ js-yaml@3.8.3 </tspan>
<tspan x="10" y="730">  │ │ │ ├─┬ argparse@1.0.9 </tspan>
<tspan x="10" y="746">  │ │ │ │ └── sprintf-js@1.0.3 </tspan>
<tspan x="10" y="762">  │ │ │ └── esprima@3.1.3 </tspan>
<tspan x="10" y="778">  │ │ ├── object-assign@2.1.1 </tspan>
<tspan x="10" y="794">  │ │ ├─┬ osenv@0.1.4 </tspan>
<tspan x="10" y="810">  │ │ │ ├── os-homedir@1.0.2 </tspan>
<tspan x="10" y="826">  │ │ │ └── os-tmpdir@1.0.2 </tspan>
<tspan x="10" y="842">  │ │ ├── uuid@2.0.3 </tspan>
<tspan x="10" y="858">  │ │ └── xdg-basedir@1.0.1 </tspan>
<tspan x="10" y="874">  │ ├─┬ decompress-zip@0.1.0 </tspan>
<tspan x="10" y="890">  │ │ ├─┬ binary@0.3.0 </tspan>
<tspan x="10" y="906">  │ │ │ ├── buffers@0.1.1 </tspan>
<tspan x="10" y="922">  │ │ │ └─┬ chainsaw@0.1.0 </tspan>
<tspan x="10" y="938">  │ │ │   └── traverse@0.3.9 </tspan>
<tspan x="10" y="954">  │ │ ├── mkpath@0.1.0 </tspan>
<tspan x="10" y="970">  │ │ ├─┬ readable-stream@1.1.14 </tspan>
<tspan x="10" y="986">  │ │ │ ├── core-util-is@1.0.2 </tspan>
<tspan x="10" y="1002">  │ │ │ ├── isarray@0.0.1 </tspan>
<tspan x="10" y="1018">  │ │ │ └── string_decoder@0.10.31 </tspan>
<tspan x="10" y="1034">  │ │ └─┬ touch@0.0.3 </tspan>
<tspan x="10" y="1050">  │ │   └── nopt@1.0.10 </tspan>
<tspan x="10" y="1066">  │ ├─┬ fstream@1.0.11 </tspan>
<tspan x="10" y="1082">  │ │ ├── graceful-fs@4.1.11 </tspan>
<tspan x="10" y="1098">  │ │ └── inherits@2.0.3 </tspan>
<tspan x="10" y="1114">  │ ├─┬ fstream-ignore@1.0.5 </tspan>
<tspan x="10" y="1130">  │ │ └─┬ minimatch@3.0.3 </tspan>
<tspan x="10" y="1146">  │ │   └─┬ brace-expansion@1.1.7 </tspan>
<tspan x="10" y="1162">  │ │     ├── balanced-match@0.4.2 </tspan>
<tspan x="10" y="1178">  │ │     └── concat-map@0.0.1 </tspan>
<tspan x="10" y="1194">  │ ├─┬ github@0.2.4 </tspan>
<tspan x="10" y="1210">  │ │ └── mime@1.3.4 </tspan>
<tspan x="10" y="1226">  │ ├─┬ glob@4.5.3 </tspan>
<tspan x="10" y="1242">  │ │ ├─┬ inflight@1.0.6 </tspan>
<tspan x="10" y="1258">  │ │ │ └── wrappy@1.0.2 </tspan>
<tspan x="10" y="1274">  │ │ ├── minimatch@2.0.10 </tspan>
<tspan x="10" y="1290">  │ │ └── once@1.4.0 </tspan>
<tspan x="10" y="1306">  │ ├─┬ graceful-fs@3.0.11 </tspan>
<tspan x="10" y="1322">  │ │ └── natives@1.1.0 </tspan>
<tspan x="10" y="1338">  │ ├─┬ handlebars@2.0.0 </tspan>
<tspan x="10" y="1354">  │ │ ├── optimist@0.3.7 </tspan>
<tspan x="10" y="1370">  │ │ └─┬ uglify-js@2.3.6 </tspan>
<tspan x="10" y="1386">  │ │   ├── async@0.2.10 </tspan>
<tspan x="10" y="1402">  │ │   ├── optimist@0.3.7 </tspan>
<tspan x="10" y="1418">  │ │   └─┬ source-map@0.1.43 </tspan>
<tspan x="10" y="1434">  │ │     └── amdefine@1.0.1 </tspan>
<tspan x="10" y="1450">  │ ├─┬ inquirer@0.8.0 </tspan>
<tspan x="10" y="1466">  │ │ ├── ansi-regex@1.1.1 </tspan>
<tspan x="10" y="1482">  │ │ ├─┬ chalk@0.5.1 </tspan>
<tspan x="10" y="1498">  │ │ │ ├── ansi-styles@1.1.0 </tspan>
<tspan x="10" y="1514">  │ │ │ ├─┬ has-ansi@0.1.0 </tspan>
<tspan x="10" y="1530">  │ │ │ │ └── ansi-regex@0.2.1 </tspan>
<tspan x="10" y="1546">  │ │ │ ├─┬ strip-ansi@0.3.0 </tspan>
<tspan x="10" y="1562">  │ │ │ │ └── ansi-regex@0.2.1 </tspan>
<tspan x="10" y="1578">  │ │ │ └── supports-color@0.2.0 </tspan>
<tspan x="10" y="1594">  │ │ ├─┬ cli-color@0.3.3 </tspan>
<tspan x="10" y="1610">  │ │ │ ├── d@0.1.1 </tspan>
<tspan x="10" y="1626">  │ │ │ ├─┬ es5-ext@0.10.15 </tspan>
<tspan x="10" y="1642">  │ │ │ │ ├─┬ es6-iterator@2.0.1 </tspan>
<tspan x="10" y="1658">  │ │ │ │ │ └── d@1.0.0 </tspan>
<tspan x="10" y="1674">  │ │ │ │ └─┬ es6-symbol@3.1.1 </tspan>
<tspan x="10" y="1690">  │ │ │ │   └── d@1.0.0 </tspan>
<tspan x="10" y="1706">  │ │ │ ├─┬ memoizee@0.3.10 </tspan>
<tspan x="10" y="1722">  │ │ │ │ ├─┬ es6-weak-map@0.1.4 </tspan>
<tspan x="10" y="1738">  │ │ │ │ │ ├── es6-iterator@0.1.3 </tspan>
<tspan x="10" y="1754">  │ │ │ │ │ └── es6-symbol@2.0.1 </tspan>
<tspan x="10" y="1770">  │ │ │ │ ├─┬ event-emitter@0.3.5 </tspan>
<tspan x="10" y="1786">  │ │ │ │ │ └── d@1.0.0 </tspan>
<tspan x="10" y="1802">  │ │ │ │ ├── lru-queue@0.1.0 </tspan>
<tspan x="10" y="1818">  │ │ │ │ └── next-tick@0.2.2 </tspan>
<tspan x="10" y="1834">  │ │ │ └─┬ timers-ext@0.1.2 </tspan>
<tspan x="10" y="1850">  │ │ │   └── next-tick@1.0.0 </tspan>
<tspan x="10" y="1866">  │ │ ├─┬ figures@1.7.0 </tspan>
<tspan x="10" y="1882">  │ │ │ └── object-assign@4.1.1 </tspan>
<tspan x="10" y="1898">  │ │ ├── lodash@2.4.2 </tspan>
<tspan x="10" y="1914">  │ │ ├── mute-stream@0.0.4 </tspan>
<tspan x="10" y="1930">  │ │ ├── readline2@0.1.1 </tspan>
<tspan x="10" y="1946">  │ │ ├── rx@2.5.3 </tspan>
<tspan x="10" y="1962">  │ │ └── through@2.3.8 </tspan>
<tspan x="10" y="1978">  │ ├─┬ insight@0.5.3 </tspan>
<tspan x="10" y="1994">  │ │ ├─┬ lodash.debounce@3.1.1 </tspan>
<tspan x="10" y="2010">  │ │ │ └── lodash._getnative@3.9.1 </tspan>
<tspan x="10" y="2026">  │ │ ├─┬ os-name@1.0.3 </tspan>
<tspan x="10" y="2042">  │ │ │ ├─┬ osx-release@1.1.0 </tspan>
<tspan x="10" y="2058">  │ │ │ │ └── minimist@1.2.0 </tspan>
<tspan x="10" y="2074">  │ │ │ └─┬ win-release@1.1.1 </tspan>
<tspan x="10" y="2090">  │ │ │   └── semver@5.3.0 </tspan>
<tspan x="10" y="2106">  │ │ └─┬ tough-cookie@0.12.1 </tspan>
<tspan x="10" y="2122">  │ │   └── punycode@1.4.1 </tspan>
<tspan x="10" y="2138">  │ ├── is-root@1.0.0 </tspan>
<tspan x="10" y="2154">  │ ├── junk@1.0.3 </tspan>
<tspan x="10" y="2170">  │ ├── lockfile@1.0.3 </tspan>
<tspan x="10" y="2186">  │ ├── lru-cache@2.7.0 </tspan>
<tspan x="10" y="2202">  │ ├─┬ mkdirp@0.5.0 </tspan>
<tspan x="10" y="2218">  │ │ └── minimist@0.0.8 </tspan>
<tspan x="10" y="2234">  │ ├── mout@0.11.1 </tspan>
<tspan x="10" y="2250">  │ ├── nopt@3.0.6 </tspan>
<tspan x="10" y="2266">  │ ├── opn@1.0.2 </tspan>
<tspan x="10" y="2282">  │ ├─┬ p-throttler@0.1.1 </tspan>
<tspan x="10" y="2298">  │ │ └── q@0.9.7 </tspan>
<tspan x="10" y="2314">  │ ├─┬ promptly@0.2.0 </tspan>
<tspan x="10" y="2330">  │ │ └── read@1.0.7 </tspan>
<tspan x="10" y="2346">  │ ├── q@1.5.0 </tspan>
<tspan x="10" y="2362">  │ ├─┬ request@2.53.0 </tspan>
<tspan x="10" y="2378">  │ │ ├── aws-sign2@0.5.0 </tspan>
<tspan x="10" y="2394">  │ │ ├─┬ bl@0.9.5 </tspan>
<tspan x="10" y="2410">  │ │ │ └── readable-stream@1.0.34 </tspan>
<tspan x="10" y="2426">  │ │ ├── caseless@0.9.0 </tspan>
<tspan x="10" y="2442">  │ │ ├─┬ combined-stream@0.0.7 </tspan>
<tspan x="10" y="2458">  │ │ │ └── delayed-stream@0.0.5 </tspan>
<tspan x="10" y="2474">  │ │ ├── forever-agent@0.5.2 </tspan>
<tspan x="10" y="2490">  │ │ ├─┬ form-data@0.2.0 </tspan>
<tspan x="10" y="2506">  │ │ │ └── mime-types@2.0.14 </tspan>
<tspan x="10" y="2522">  │ │ ├─┬ hawk@2.3.1 </tspan>
<tspan x="10" y="2538">  │ │ │ ├── boom@2.10.1 </tspan>
<tspan x="10" y="2554">  │ │ │ ├── cryptiles@2.0.5 </tspan>
<tspan x="10" y="2570">  │ │ │ ├── hoek@2.16.3 </tspan>
<tspan x="10" y="2586">  │ │ │ └── sntp@1.0.9 </tspan>
<tspan x="10" y="2602">  │ │ ├─┬ http-signature@0.10.1 </tspan>
<tspan x="10" y="2618">  │ │ │ ├── asn1@0.1.11 </tspan>
<tspan x="10" y="2634">  │ │ │ ├── assert-plus@0.1.5 </tspan>
<tspan x="10" y="2650">  │ │ │ └── ctype@0.5.3 </tspan>
<tspan x="10" y="2666">  │ │ ├── isstream@0.1.2 </tspan>
<tspan x="10" y="2682">  │ │ ├── json-stringify-safe@5.0.1 </tspan>
<tspan x="10" y="2698">  │ │ ├─┬ mime-types@2.0.14 </tspan>
<tspan x="10" y="2714">  │ │ │ └── mime-db@1.12.0 </tspan>
<tspan x="10" y="2730">  │ │ ├── node-uuid@1.4.8 </tspan>
<tspan x="10" y="2746">  │ │ ├── oauth-sign@0.6.0 </tspan>
<tspan x="10" y="2762">  │ │ ├── qs@2.3.3 </tspan>
<tspan x="10" y="2778">  │ │ ├── stringstream@0.0.5 </tspan>
<tspan x="10" y="2794">  │ │ ├── tough-cookie@2.3.2 </tspan>
<tspan x="10" y="2810">  │ │ └── tunnel-agent@0.4.3 </tspan>
<tspan x="10" y="2826">  │ ├─┬ request-progress@0.3.1 </tspan>
<tspan x="10" y="2842">  │ │ └── throttleit@0.0.2 </tspan>
<tspan x="10" y="2858">  │ ├── retry@0.6.1 </tspan>
<tspan x="10" y="2874">  │ ├─┬ rimraf@2.6.1 </tspan>
<tspan x="10" y="2890">  │ │ └─┬ glob@7.1.1 </tspan>
<tspan x="10" y="2906">  │ │   ├── fs.realpath@1.0.0 </tspan>
<tspan x="10" y="2922">  │ │   └── path-is-absolute@1.0.1 </tspan>
<tspan x="10" y="2938">  │ ├── semver@2.3.2 </tspan>
<tspan x="10" y="2954">  │ ├─┬ shell-quote@1.6.1 </tspan>
<tspan x="10" y="2970">  │ │ ├── array-filter@0.0.1 </tspan>
<tspan x="10" y="2986">  │ │ ├── array-map@0.0.0 </tspan>
<tspan x="10" y="3002">  │ │ ├── array-reduce@0.0.0 </tspan>
<tspan x="10" y="3018">  │ │ └── jsonify@0.0.0 </tspan>
<tspan x="10" y="3034">  │ ├── stringify-object@1.0.1 </tspan>
<tspan x="10" y="3050">  │ ├─┬ tar-fs@1.15.2 </tspan>
<tspan x="10" y="3066">  │ │ ├── chownr@1.0.1 </tspan>
<tspan x="10" y="3082">  │ │ ├─┬ mkdirp@0.5.1 </tspan>
<tspan x="10" y="3098">  │ │ │ └── minimist@0.0.8 </tspan>
<tspan x="10" y="3114">  │ │ ├─┬ pump@1.0.2 </tspan>
<tspan x="10" y="3130">  │ │ │ └── end-of-stream@1.4.0 </tspan>
<tspan x="10" y="3146">  │ │ └─┬ tar-stream@1.5.2 </tspan>
<tspan x="10" y="3162">  │ │   ├── bl@1.2.0 </tspan>
<tspan x="10" y="3178">  │ │   ├─┬ readable-stream@2.2.9 </tspan>
<tspan x="10" y="3194">  │ │   │ ├── buffer-shims@1.0.0 </tspan>
<tspan x="10" y="3210">  │ │   │ ├── isarray@1.0.0 </tspan>
<tspan x="10" y="3226">  │ │   │ ├── process-nextick-args@1.0.7 </tspan>
<tspan x="10" y="3242">  │ │   │ ├── string_decoder@1.0.0 </tspan>
<tspan x="10" y="3258">  │ │   │ └── util-deprecate@1.0.2 </tspan>
<tspan x="10" y="3274">  │ │   └── xtend@4.0.1 </tspan>
<tspan x="10" y="3290">  │ ├── tmp@0.0.24 </tspan>
<tspan x="10" y="3306">  │ ├─┬ update-notifier@0.3.2 </tspan>
<tspan x="10" y="3322">  │ │ ├── is-npm@1.0.0 </tspan>
<tspan x="10" y="3338">  │ │ ├─┬ latest-version@1.0.1 </tspan>
<tspan x="10" y="3354">  │ │ │ └─┬ package-json@1.2.0 </tspan>
<tspan x="10" y="3370">  │ │ │   ├─┬ got@3.3.1 </tspan>
<tspan x="10" y="3386">  │ │ │   │ ├─┬ duplexify@3.5.0 </tspan>
<tspan x="10" y="3402">  │ │ │   │ │ ├─┬ end-of-stream@1.0.0 </tspan>
<tspan x="10" y="3418">  │ │ │   │ │ │ └── once@1.3.3 </tspan>
<tspan x="10" y="3434">  │ │ │   │ │ ├─┬ readable-stream@2.2.9 </tspan>
<tspan x="10" y="3450">  │ │ │   │ │ │ ├── isarray@1.0.0 </tspan>
<tspan x="10" y="3466">  │ │ │   │ │ │ └── string_decoder@1.0.0 </tspan>
<tspan x="10" y="3482">  │ │ │   │ │ └── stream-shift@1.0.0 </tspan>
<tspan x="10" y="3498">  │ │ │   │ ├── infinity-agent@2.0.3 </tspan>
<tspan x="10" y="3514">  │ │ │   │ ├── is-redirect@1.0.0 </tspan>
<tspan x="10" y="3530">  │ │ │   │ ├── is-stream@1.1.0 </tspan>
<tspan x="10" y="3546">  │ │ │   │ ├── lowercase-keys@1.0.0 </tspan>
<tspan x="10" y="3562">  │ │ │   │ ├── nested-error-stacks@1.0.2 </tspan>
<tspan x="10" y="3578">  │ │ │   │ ├── object-assign@3.0.0 </tspan>
<tspan x="10" y="3594">  │ │ │   │ ├── prepend-http@1.0.4 </tspan>
<tspan x="10" y="3610">  │ │ │   │ ├─┬ read-all-stream@3.1.0 </tspan>
<tspan x="10" y="3626">  │ │ │   │ │ ├─┬ pinkie-promise@2.0.1 </tspan>
<tspan x="10" y="3642">  │ │ │   │ │ │ └── pinkie@2.0.4 </tspan>
<tspan x="10" y="3658">  │ │ │   │ │ └─┬ readable-stream@2.2.9 </tspan>
<tspan x="10" y="3674">  │ │ │   │ │   ├── isarray@1.0.0 </tspan>
<tspan x="10" y="3690">  │ │ │   │ │   └── string_decoder@1.0.0 </tspan>
<tspan x="10" y="3706">  │ │ │   │ └── timed-out@2.0.0 </tspan>
<tspan x="10" y="3722">  │ │ │   └─┬ registry-url@3.1.0 </tspan>
<tspan x="10" y="3738">  │ │ │     └─┬ rc@1.2.1 </tspan>
<tspan x="10" y="3754">  │ │ │       ├── deep-extend@0.4.1 </tspan>
<tspan x="10" y="3770">  │ │ │       ├── ini@1.3.4 </tspan>
<tspan x="10" y="3786">  │ │ │       ├── minimist@1.2.0 </tspan>
<tspan x="10" y="3802">  │ │ │       └── strip-json-comments@2.0.1 </tspan>
<tspan x="10" y="3818">  │ │ ├─┬ semver-diff@2.1.0 </tspan>
<tspan x="10" y="3834">  │ │ │ └── semver@5.3.0 </tspan>
<tspan x="10" y="3850">  │ │ └─┬ string-length@1.0.1 </tspan>
<tspan x="10" y="3866">  │ │   └─┬ strip-ansi@3.0.1 </tspan>
<tspan x="10" y="3882">  │ │     └── ansi-regex@2.1.1 </tspan>
<tspan x="10" y="3898">  │ ├── user-home@1.1.1 </tspan>
<tspan x="10" y="3914">  │ └─┬ which@1.2.14 </tspan>
<tspan x="10" y="3930">  │   └── isexe@2.0.0 </tspan>
<tspan x="10" y="3946">  ├─┬ chalk@1.0.0 </tspan>
<tspan x="10" y="3962">  │ ├── ansi-styles@2.2.1 </tspan>
<tspan x="10" y="3978">  │ ├── escape-string-regexp@1.0.5 </tspan>
<tspan x="10" y="3994">  │ ├─┬ has-ansi@1.0.3 </tspan>
<tspan x="10" y="4010">  │ │ └── get-stdin@4.0.1 </tspan>
<tspan x="10" y="4026">  │ ├── strip-ansi@2.0.1 </tspan>
<tspan x="10" y="4042">  │ └── supports-color@1.3.1 </tspan>
<tspan x="10" y="4058">  ├── lodash@3.6.0 </tspan>
<tspan x="10" y="4074">  ├─┬ nomnom@1.8.1 </tspan>
<tspan x="10" y="4090">  │ ├─┬ chalk@0.4.0 </tspan>
<tspan x="10" y="4106">  │ │ ├── ansi-styles@1.0.0 </tspan>
<tspan x="10" y="4122">  │ │ ├── has-color@0.1.7 </tspan>
<tspan x="10" y="4138">  │ │ └── strip-ansi@0.1.1 </tspan>
<tspan x="10" y="4154">  │ └── underscore@1.6.0 </tspan>
<tspan x="10" y="4170">  └── readline-sync@0.8.0</tspan>
</text>
</svg>
